<?xml version="1.0" encoding="UTF-8" standalone="no"?>
<svg
   xmlns:dc="http://purl.org/dc/elements/1.1/"
   xmlns:cc="http://creativecommons.org/ns#"
   xmlns:rdf="http://www.w3.org/1999/02/22-rdf-syntax-ns#"
   xmlns:svg="http://www.w3.org/2000/svg"
   xmlns="http://www.w3.org/2000/svg"
   xmlns:sodipodi="http://sodipodi.sourceforge.net/DTD/sodipodi-0.dtd"
   xmlns:inkscape="http://www.inkscape.org/namespaces/inkscape"
   version="1.1"
   x="0px"
   y="0px"
   viewBox="0 0 100 100"
   enable-background="new 0 0 100 100"
   xml:space="preserve"
   id="svg4"
   sodipodi:docname="help-icon.svg"
   inkscape:version="0.92.2 2405546, 2018-03-11"><metadata
     id="metadata10"><rdf:RDF><cc:Work
         rdf:about=""><dc:format>image/svg+xml</dc:format><dc:type
           rdf:resource="http://purl.org/dc/dcmitype/StillImage" /><dc:title></dc:title></cc:Work></rdf:RDF></metadata><defs
     id="defs8" /><sodipodi:namedview
     pagecolor="#ffffff"
     bordercolor="#666666"
     borderopacity="1"
     objecttolerance="10"
     gridtolerance="10"
     guidetolerance="10"
     inkscape:pageopacity="0"
     inkscape:pageshadow="2"
     inkscape:window-width="709"
     inkscape:window-height="480"
     id="namedview6"
     showgrid="false"
     inkscape:zoom="2.36"
     inkscape:cx="50"
     inkscape:cy="50"
     inkscape:window-x="0"
     inkscape:window-y="0"
     inkscape:window-maximized="0"
     inkscape:current-layer="svg4" /><path
     d="M50.1,11.4c-21.1,0-38.2,17.1-38.2,38.2c0,21.1,17.1,38.2,38.2,38.2s38.2-17.1,38.2-38.2C88.3,28.5,71.1,11.4,50.1,11.4z   M50.1,84.1c-19,0-34.5-15.5-34.5-34.5S31,15.1,50.1,15.1s34.5,15.5,34.5,34.5S69.1,84.1,50.1,84.1z M51.7,68.1c0,1.1-0.9,2-2,2  c-1.1,0-2-0.9-2-2c0-1.1,0.9-2,2-2C50.8,66.1,51.7,67,51.7,68.1z M60,40.9c0,3.5-2,6.7-5.7,8.9c-2.7,1.6-2.6,3.5-2.6,3.6  c0,0,0,0.1,0,0.2v4.6c0,1-0.8,1.8-1.8,1.8S48,59.2,48,58.2v-4.5c-0.1-1.6,0.7-4.7,4.3-6.9c1.8-1.1,3.9-3,3.9-5.8  c0-3.4-2.8-6.2-6.2-6.2c-3.4,0-6.2,2.8-6.2,6.2c0,1-0.8,1.8-1.8,1.8c-1,0-1.8-0.8-1.8-1.8c0-5.5,4.4-9.9,9.9-9.9S60,35.4,60,40.9z"
     id="path2" /></svg>